<svg width="354.72998046875px" height="111.8px" xmlns="http://www.w3.org/2000/svg" viewBox="72.635009765625 19.1 354.72998046875 111.8" style="background: rgb(253, 253, 253);" preserveAspectRatio="xMidYMid"><defs><filter id="editing-neon" x="-100%" y="-100%" width="300%" height="300%"><feFlood flood-color="#78a7c8" result="flood"></feFlood><feComposite operator="in" in="flood" in2="SourceAlpha" result="color"></feComposite><feFlood flood-color="#78a7c8" result="flood2"></feFlood><feComposite operator="in" in="flood2" in2="SourceAlpha" result="color2"></feComposite><feMorphology operator="dilate" radius="2" in="color" result="dilate"></feMorphology><feGaussianBlur stdDeviation="6" in="color" result="blur1"></feGaussianBlur><feGaussianBlur stdDeviation="2.5" in="color" result="blur2"></feGaussianBlur><feGaussianBlur stdDeviation="1" in="SourceAlpha" result="blur3"></feGaussianBlur><feGaussianBlur stdDeviation="6" in="dilate" result="blur4"></feGaussianBlur><feConvolveMatrix in="color2" result="conv" order="3,3" divisor="1" kernelMatrix="1 1 1  1 1 1  1 1 1"></feConvolveMatrix><feMerge><feMergeNode in="blur1"></feMergeNode><feMergeNode in="blur2"></feMergeNode><feMergeNode in="blur4"></feMergeNode><feMergeNode in="blur3"></feMergeNode><feMergeNode in="blur3"></feMergeNode><feMergeNode in="blur3"></feMergeNode><feMergeNode in="blur3"></feMergeNode><feMergeNode in="conv"></feMergeNode><feMergeNode in="SourceGraphic"></feMergeNode></feMerge></filter></defs><g filter="url(#editing-neon)"><g transform="translate(127.23453032970428, 102.30999946594238)"><path d="M3.49-1.74L1.74-22.90L1.74-22.90Q1.65-23.00 1.51-23.22L1.51-23.22L1.51-23.22Q1.38-23.45 1.24-23.75L1.24-23.75L1.24-23.75Q1.10-24.05 0.99-24.30L0.99-24.30L0.99-24.30Q0.87-24.56 0.87-24.69L0.87-24.69L0.87-24.69Q0.87-25.11 1.24-25.34L1.24-25.34L1.24-25.34Q1.61-25.57 2.07-25.61L2.07-25.61L2.07-25.61Q2.52-25.66 2.96-25.66L2.96-25.66L2.96-25.66Q3.40-25.66 3.49-25.66L3.49-25.66L3.49-25.66Q3.63-25.66 3.88-25.63L3.88-25.63L3.88-25.63Q4.13-25.61 4.43-25.59L4.43-25.59L4.43-25.59Q4.73-25.57 4.96-25.54L4.96-25.54L4.96-25.54Q5.19-25.52 5.28-25.52L5.28-25.52L5.28-25.52Q6.79-24.97 8.74-24.23L8.74-24.23L8.74-24.23Q10.69-23.50 12.76-22.54L12.76-22.54L12.76-22.54Q14.83-21.57 16.80-20.36L16.80-20.36L16.80-20.36Q18.77-19.14 20.33-17.60L20.33-17.60L20.33-17.60Q21.89-16.06 22.86-14.23L22.86-14.23L22.86-14.23Q23.82-12.39 23.82-10.14L23.82-10.14L23.82-10.14Q23.82-8.22 23.09-6.68L23.09-6.68L23.09-6.68Q22.35-5.14 21.14-4.02L21.14-4.02L21.14-4.02Q19.92-2.89 18.31-2.09L18.31-2.09L18.31-2.09Q16.71-1.29 15.03-0.80L15.03-0.80L15.03-0.80Q13.36-0.32 11.66-0.09L11.66-0.09L11.66-0.09Q9.96 0.14 8.49 0.14L8.49 0.14L8.49 0.14Q8.17 0.14 7.39 0.11L7.39 0.11L7.39 0.11Q6.61 0.09 5.78 0.05L5.78 0.05L5.78 0.05Q4.96 0 4.29-0.02L4.29-0.02L4.29-0.02Q3.63-0.05 3.58-0.05L3.58-0.05L3.49-1.74ZM4.36-23.13L4.36-23.13L4.36-23.13Q4.36-23.04 4.36-22.77L4.36-22.77L4.36-22.77Q4.36-22.49 4.38-22.15L4.38-22.15L4.38-22.15Q4.41-21.80 4.41-21.53L4.41-21.53L4.41-21.53Q4.41-21.25 4.41-21.11L4.41-21.11L4.41-21.11Q4.45-20.42 4.52-18.91L4.52-18.91L4.52-18.91Q4.59-17.40 4.66-15.47L4.66-15.47L4.66-15.47Q4.73-13.54 4.84-11.45L4.84-11.45L4.84-11.45Q4.96-9.36 5.05-7.46L5.05-7.46L5.05-7.46Q5.14-5.55 5.21-4.02L5.21-4.02L5.21-4.02Q5.28-2.48 5.28-1.74L5.28-1.74L5.28-1.74Q5.55-1.74 6.17-1.72L6.17-1.72L6.17-1.72Q6.79-1.70 7.48-1.68L7.48-1.68L7.48-1.68Q8.17-1.65 8.79-1.63L8.79-1.63L8.79-1.63Q9.41-1.61 9.68-1.61L9.68-1.61L9.68-1.61Q11.80-1.61 13.86-2.13L13.86-2.13L13.86-2.13Q15.93-2.66 17.56-3.74L17.56-3.74L17.56-3.74Q19.19-4.82 20.22-6.54L20.22-6.54L20.22-6.54Q21.25-8.26 21.25-10.69L21.25-10.69L21.25-10.69Q21.25-12.48 20.42-14.11L20.42-14.11L20.42-14.11Q19.60-15.74 18.24-17.12L18.24-17.12L18.24-17.12Q16.89-18.50 15.15-19.60L15.15-19.60L15.15-19.60Q13.40-20.70 11.54-21.50L11.54-21.50L11.54-21.50Q9.68-22.31 7.83-22.72L7.83-22.72L7.83-22.72Q5.97-23.13 4.36-23.13ZM25.89-10.79L25.89-10.79L25.89-10.79Q25.89-12.16 26.48-13.84L26.48-13.84L26.48-13.84Q27.08-15.51 28.11-16.96L28.11-16.96L28.11-16.96Q29.15-18.41 30.45-19.39L30.45-19.39L30.45-19.39Q31.76-20.38 33.18-20.38L33.18-20.38L33.18-20.38Q33.96-20.38 34.72-20.06L34.72-20.06L34.72-20.06Q35.48-19.74 36.19-19.21L36.19-19.21L36.19-19.21Q36.90-18.68 37.48-18.02L37.48-18.02L37.48-18.02Q38.05-17.35 38.37-16.62L38.37-16.62L38.37-16.62Q38.69-15.88 38.72-15.19L38.72-15.19L38.72-15.19Q38.74-14.50 38.33-14.00L38.33-14.00L28.64-12.21L28.64-12.21Q28.46-12.16 28.32-11.77L28.32-11.77L28.32-11.77Q28.18-11.38 28.09-10.79L28.09-10.79L28.09-10.79Q28.00-10.19 27.93-9.48L27.93-9.48L27.93-9.48Q27.86-8.77 27.81-8.10L27.81-8.10L27.81-8.10Q27.77-7.44 27.77-6.91L27.77-6.91L27.77-6.91Q27.77-6.38 27.77-6.10L27.77-6.10L27.77-6.10Q27.77-4.82 28.39-4.02L28.39-4.02L28.39-4.02Q29.01-3.21 29.97-2.80L29.97-2.80L29.97-2.80Q30.94-2.39 32.15-2.25L32.15-2.25L32.15-2.25Q33.37-2.11 34.56-2.11L34.56-2.11L34.56-2.11Q35.75-2.11 36.81-2.20L36.81-2.20L36.81-2.20Q37.87-2.29 38.55-2.29L38.55-2.29L38.55-2.29Q38.55-2.11 38.42-1.88L38.42-1.88L38.42-1.88Q38.28-1.65 38.10-1.45L38.10-1.45L38.10-1.45Q37.91-1.24 37.73-1.08L37.73-1.08L37.73-1.08Q37.54-0.92 37.50-0.87L37.50-0.87L37.50-0.87Q37.13-0.78 36.37-0.62L36.37-0.62L36.37-0.62Q35.62-0.46 34.77-0.32L34.77-0.32L34.77-0.32Q33.92-0.18 33.18-0.09L33.18-0.09L33.18-0.09Q32.45 0 32.17 0L32.17 0L32.17 0Q30.75 0.28 29.70-0.05L29.70-0.05L29.70-0.05Q28.64-0.37 27.91-1.15L27.91-1.15L27.91-1.15Q27.17-1.93 26.71-3.05L26.71-3.05L26.71-3.05Q26.25-4.18 26.02-5.46L26.02-5.46L26.02-5.46Q25.79-6.75 25.77-8.12L25.77-8.12L25.77-8.12Q25.75-9.50 25.89-10.79ZM32.54-18.63L32.54-18.63L32.54-18.63Q32.13-18.63 31.46-18.20L31.46-18.20L31.46-18.20Q30.80-17.76 30.22-17.10L30.22-17.10L30.22-17.10Q29.65-16.43 29.26-15.67L29.26-15.67L29.26-15.67Q28.87-14.92 29.01-14.37L29.01-14.37L29.01-14.37Q30.20-14.23 31.49-14.41L31.49-14.41L31.49-14.41Q32.77-14.60 33.83-14.99L33.83-14.99L33.83-14.99Q34.88-15.38 35.57-15.90L35.57-15.90L35.57-15.90Q36.26-16.43 36.24-16.98L36.24-16.98L36.24-16.98Q36.21-17.53 35.36-17.97L35.36-17.97L35.36-17.97Q34.52-18.41 32.54-18.63ZM42.18-35.66L42.18-35.66L42.18-35.66Q42.82-35.57 43.31-35.32L43.31-35.32L43.31-35.32Q43.79-35.07 44.06-34.42L44.06-34.42L44.06-34.42Q44.06-33.55 44.13-32.01L44.13-32.01L44.13-32.01Q44.20-30.48 44.27-28.46L44.27-28.46L44.27-28.46Q44.34-26.44 44.43-24.10L44.43-24.10L44.43-24.10Q44.52-21.76 44.61-19.37L44.61-19.37L44.61-19.37Q44.71-16.98 44.77-14.64L44.77-14.64L44.77-14.64Q44.84-12.30 44.91-10.28L44.91-10.28L44.91-10.28Q44.98-8.26 45.03-6.70L45.03-6.70L45.03-6.70Q45.07-5.14 45.12-4.31L45.12-4.31L45.12-4.31Q45.12-4.22 45.10-3.99L45.10-3.99L45.10-3.99Q45.07-3.76 45.05-3.44L45.05-3.44L45.05-3.44Q45.03-3.12 45.00-2.82L45.00-2.82L45.00-2.82Q44.98-2.52 44.98-2.39L44.98-2.39L44.98-2.39Q44.93-2.11 44.93-1.72L44.93-1.72L44.93-1.72Q44.93-1.33 44.84-0.96L44.84-0.96L44.84-0.96Q44.75-0.60 44.54-0.30L44.54-0.30L44.54-0.30Q44.34 0 43.88 0.05L43.88 0.05L43.10-0.92L43.10-0.92Q43.05-0.96 42.98-2.64L42.98-2.64L42.98-2.64Q42.92-4.31 42.80-7.00L42.80-7.00L42.80-7.00Q42.69-9.68 42.59-13.06L42.59-13.06L42.59-13.06Q42.50-16.43 42.39-19.87L42.39-19.87L42.39-19.87Q42.27-23.32 42.18-26.48L42.18-26.48L42.18-26.48Q42.09-29.65 42.04-31.95L42.04-31.95L42.04-31.95Q42.04-32.13 42.07-32.68L42.07-32.68L42.07-32.68Q42.09-33.23 42.11-33.80L42.11-33.80L42.11-33.80Q42.13-34.38 42.16-34.91L42.16-34.91L42.16-34.91Q42.18-35.43 42.18-35.66ZM50.58 0.09L49.89-17.81L49.89-17.81Q50.44-17.81 50.83-17.85L50.83-17.85L50.83-17.85Q51.22-17.90 51.50-17.40L51.50-17.40L51.50-17.40Q51.64-15.33 51.82-13.20L51.82-13.20L51.82-13.20Q52.00-11.06 52.19-8.90L52.19-8.90L52.19-8.90Q52.37-6.75 52.44-4.57L52.44-4.57L52.44-4.57Q52.51-2.39 52.46-0.32L52.46-0.32L52.46-0.32Q52.46-0.05 52.32 0.02L52.32 0.02L52.32 0.02Q52.19 0.09 51.93 0.07L51.93 0.07L51.93 0.07Q51.68 0.05 51.34 0.02L51.34 0.02L51.34 0.02Q50.99 0 50.58 0.09L50.58 0.09ZM47.23-26.02L47.23-26.02L47.23-26.02Q47.23-26.35 47.28-26.74L47.28-26.74L47.28-26.74Q47.32-27.13 47.48-27.45L47.48-27.45L47.48-27.45Q47.64-27.77 47.90-28.00L47.90-28.00L47.90-28.00Q48.15-28.23 48.51-28.23L48.51-28.23L48.51-28.23Q49.07-28.23 49.62-28.18L49.62-28.18L49.62-28.18Q50.17-28.14 50.67-27.98L50.67-27.98L50.67-27.98Q51.18-27.81 51.50-27.47L51.50-27.47L51.50-27.47Q51.82-27.13 51.82-26.48L51.82-26.48L51.82-26.48Q51.82-25.38 50.99-24.53L50.99-24.53L50.99-24.53Q50.17-23.68 48.97-23.68L48.97-23.68L48.97-23.68Q48.06-23.68 47.64-24.40L47.64-24.40L47.64-24.40Q47.23-25.11 47.23-26.02ZM49.89-25.79L49.89-25.79L49.89-25.79Q49.75-25.79 49.75-25.57L49.75-25.57L49.75-25.57Q49.75-25.34 49.89-25.34L49.89-25.34L49.89-25.34Q50.08-25.34 50.08-25.57L50.08-25.57L50.08-25.57Q50.08-25.79 49.89-25.79ZM64.85 0.23L53.93-20.29L55.35-21.71L65.45-3.35L69.77-21.11L69.77-21.11Q70.09-20.98 70.45-20.91L70.45-20.91L70.45-20.91Q70.82-20.84 71.12-20.77L71.12-20.77L71.12-20.77Q71.42-20.70 71.60-20.61L71.60-20.61L71.60-20.61Q71.79-20.52 71.79-20.29L71.79-20.29L71.79-20.29Q71.19-17.35 70.66-14.78L70.66-14.78L70.66-14.78Q70.13-12.21 69.54-9.78L69.54-9.78L69.54-9.78Q68.94-7.34 68.25-4.89L68.25-4.89L68.25-4.89Q67.56-2.43 66.64 0.23L66.64 0.23L64.85 0.23ZM72.93-10.79L72.93-10.79L72.93-10.79Q72.93-12.16 73.53-13.84L73.53-13.84L73.53-13.84Q74.13-15.51 75.16-16.96L75.16-16.96L75.16-16.96Q76.19-18.41 77.50-19.39L77.50-19.39L77.50-19.39Q78.81-20.38 80.23-20.38L80.23-20.38L80.23-20.38Q81.01-20.38 81.77-20.06L81.77-20.06L81.77-20.06Q82.53-19.74 83.24-19.21L83.24-19.21L83.24-19.21Q83.95-18.68 84.52-18.02L84.52-18.02L84.52-18.02Q85.10-17.35 85.42-16.62L85.42-16.62L85.42-16.62Q85.74-15.88 85.76-15.19L85.76-15.19L85.76-15.19Q85.78-14.50 85.37-14.00L85.37-14.00L75.69-12.21L75.69-12.21Q75.50-12.16 75.37-11.77L75.37-11.77L75.37-11.77Q75.23-11.38 75.14-10.79L75.14-10.79L75.14-10.79Q75.04-10.19 74.98-9.48L74.98-9.48L74.98-9.48Q74.91-8.77 74.86-8.10L74.86-8.10L74.86-8.10Q74.81-7.44 74.81-6.91L74.81-6.91L74.81-6.91Q74.81-6.38 74.81-6.10L74.81-6.10L74.81-6.10Q74.81-4.82 75.43-4.02L75.43-4.02L75.43-4.02Q76.05-3.21 77.02-2.80L77.02-2.80L77.02-2.80Q77.98-2.39 79.20-2.25L79.20-2.25L79.20-2.25Q80.41-2.11 81.61-2.11L81.61-2.11L81.61-2.11Q82.80-2.11 83.86-2.20L83.86-2.20L83.86-2.20Q84.91-2.29 85.60-2.29L85.60-2.29L85.60-2.29Q85.60-2.11 85.46-1.88L85.46-1.88L85.46-1.88Q85.33-1.65 85.14-1.45L85.14-1.45L85.14-1.45Q84.96-1.24 84.77-1.08L84.77-1.08L84.77-1.08Q84.59-0.92 84.54-0.87L84.54-0.87L84.54-0.87Q84.18-0.78 83.42-0.62L83.42-0.62L83.42-0.62Q82.66-0.46 81.81-0.32L81.81-0.32L81.81-0.32Q80.96-0.18 80.23-0.09L80.23-0.09L80.23-0.09Q79.50 0 79.22 0L79.22 0L79.22 0Q77.80 0.28 76.74-0.05L76.74-0.05L76.74-0.05Q75.69-0.37 74.95-1.15L74.95-1.15L74.95-1.15Q74.22-1.93 73.76-3.05L73.76-3.05L73.76-3.05Q73.30-4.18 73.07-5.46L73.07-5.46L73.07-5.46Q72.84-6.75 72.82-8.12L72.82-8.12L72.82-8.12Q72.79-9.50 72.93-10.79ZM79.59-18.63L79.59-18.63L79.59-18.63Q79.17-18.63 78.51-18.20L78.51-18.20L78.51-18.20Q77.84-17.76 77.27-17.10L77.27-17.10L77.27-17.10Q76.70-16.43 76.31-15.67L76.31-15.67L76.31-15.67Q75.92-14.92 76.05-14.37L76.05-14.37L76.05-14.37Q77.25-14.23 78.53-14.41L78.53-14.41L78.53-14.41Q79.82-14.60 80.87-14.99L80.87-14.99L80.87-14.99Q81.93-15.38 82.62-15.90L82.62-15.90L82.62-15.90Q83.31-16.43 83.28-16.98L83.28-16.98L83.28-16.98Q83.26-17.53 82.41-17.97L82.41-17.97L82.41-17.97Q81.56-18.41 79.59-18.63ZM87.80-17.90L87.80-17.90L87.80-17.90Q88.35-18.13 88.77-17.99L88.77-17.99L88.77-17.99Q89.18-17.85 89.46-17.49L89.46-17.49L89.46-17.49Q89.73-17.12 89.87-16.64L89.87-16.64L89.87-16.64Q90.01-16.16 90.10-15.70L90.10-15.70L90.10-15.70Q90.70-16.71 91.82-17.33L91.82-17.33L91.82-17.33Q92.94-17.95 94.23-18.15L94.23-18.15L94.23-18.15Q95.51-18.36 96.80-18.24L96.80-18.24L96.80-18.24Q98.08-18.13 98.98-17.69L98.98-17.69L98.98-17.69Q99.88-17.26 100.24-16.50L100.24-16.50L100.24-16.50Q100.61-15.74 100.06-14.73L100.06-14.73L100.06-14.73Q98.87-15.42 97.56-15.83L97.56-15.83L97.56-15.83Q96.25-16.25 95.01-16.11L95.01-16.11L95.01-16.11Q93.77-15.97 92.71-15.17L92.71-15.17L92.71-15.17Q91.66-14.37 90.97-12.62L90.97-12.62L90.97-12.62Q90.28-10.88 90.12-8.01L90.12-8.01L90.12-8.01Q89.96-5.14 90.51-0.87L90.51-0.87L88.77-0.87L88.77-0.87Q88.77-0.87 88.70-1.63L88.70-1.63L88.70-1.63Q88.63-2.39 88.56-3.63L88.56-3.63L88.56-3.63Q88.49-4.87 88.38-6.38L88.38-6.38L88.38-6.38Q88.26-7.89 88.17-9.46L88.17-9.46L88.17-9.46Q88.08-11.02 88.01-12.46L88.01-12.46L88.01-12.46Q87.94-13.91 87.85-14.96L87.85-14.96L87.85-14.96Q87.85-15.10 87.83-15.51L87.83-15.51L87.83-15.51Q87.80-15.93 87.80-16.41L87.80-16.41L87.80-16.41Q87.80-16.89 87.80-17.30L87.80-17.30L87.80-17.30Q87.80-17.72 87.80-17.90ZM113.14 18.96L111.07 18.82L111.07 18.82Q111.07 16.52 111.49 14.09L111.49 14.09L111.49 14.09Q111.90 11.66 112.34 9.23L112.34 9.23L112.34 9.23Q112.77 6.79 113.07 4.36L113.07 4.36L113.07 4.36Q113.37 1.93 113.14-0.41L113.14-0.41L101.71-19.78L101.71-19.78Q102.72-20.70 103.32-20.81L103.32-20.81L103.32-20.81Q103.91-20.93 104.01-20.84L104.01-20.84L104.01-20.84Q104.33-20.38 105.08-19.14L105.08-19.14L105.08-19.14Q105.84-17.90 106.83-16.25L106.83-16.25L106.83-16.25Q107.82-14.60 108.92-12.76L108.92-12.76L108.92-12.76Q110.02-10.92 111.01-9.27L111.01-9.27L111.01-9.27Q111.99-7.62 112.70-6.33L112.70-6.33L112.70-6.33Q113.42-5.05 113.69-4.54L113.69-4.54L115.80-21.57L118.10-20.42L113.14 18.96ZM138.93-3.49L138.93-3.49L138.93-3.49Q139.16-4.04 139.65-4.18L139.65-4.18L139.65-4.18Q140.13-4.31 140.68-3.49L140.68-3.49L140.68-3.49Q140.68-3.40 141.11-3.24L141.11-3.24L141.11-3.24Q141.55-3.08 142.22-2.87L142.22-2.87L142.22-2.87Q142.88-2.66 143.78-2.46L143.78-2.46L143.78-2.46Q144.67-2.25 145.54-2.09L145.54-2.09L145.54-2.09Q146.42-1.93 147.24-1.81L147.24-1.81L147.24-1.81Q148.07-1.70 148.67-1.70L148.67-1.70L148.67-1.70Q150.23-1.70 151.53-2.36L151.53-2.36L151.53-2.36Q152.84-3.03 153.78-4.08L153.78-4.08L153.78-4.08Q154.72-5.14 155.23-6.49L155.23-6.49L155.23-6.49Q155.73-7.85 155.73-9.27L155.73-9.27L155.73-9.27Q155.73-9.68 155.60-10.72L155.60-10.72L155.60-10.72Q155.46-11.75 155.14-12.78L155.14-12.78L155.14-12.78Q154.82-13.82 154.29-14.64L154.29-14.64L154.29-14.64Q153.76-15.47 153.03-15.47L153.03-15.47L153.03-15.47Q148.25-14.92 145.20-15.03L145.20-15.03L145.20-15.03Q142.15-15.15 140.36-15.74L140.36-15.74L140.36-15.74Q138.57-16.34 137.86-17.37L137.86-17.37L137.86-17.37Q137.14-18.41 137.10-19.74L137.10-19.74L137.10-19.74Q137.10-21.39 137.92-22.93L137.92-22.93L137.92-22.93Q138.75-24.46 140.04-25.66L140.04-25.66L140.04-25.66Q141.32-26.85 142.90-27.56L142.90-27.56L142.90-27.56Q144.49-28.27 146.05-28.27L146.05-28.27L146.05-28.27Q147.33-28.27 148.73-27.95L148.73-27.95L148.73-27.95Q150.13-27.63 151.33-26.97L151.33-26.97L151.33-26.97Q152.52-26.30 153.28-25.22L153.28-25.22L153.28-25.22Q154.04-24.14 154.04-22.63L154.04-22.63L154.04-22.63Q152.93-22.63 152.02-23.25L152.02-23.25L152.02-23.25Q151.10-23.87 150.18-24.56L150.18-24.56L150.18-24.56Q149.26-25.24 148.25-25.86L148.25-25.86L148.25-25.86Q147.24-26.48 145.91-26.48L145.91-26.48L145.91-26.48Q144.81-26.48 143.69-25.93L143.69-25.93L143.69-25.93Q142.56-25.38 141.67-24.51L141.67-24.51L141.67-24.51Q140.77-23.64 140.20-22.56L140.20-22.56L140.20-22.56Q139.62-21.48 139.62-20.33L139.62-20.33L139.62-20.33Q139.62-19.87 139.65-19.35L139.65-19.35L139.65-19.35Q139.67-18.82 139.85-18.34L139.85-18.34L139.85-18.34Q140.04-17.85 140.43-17.53L140.43-17.53L140.43-17.53Q140.82-17.21 141.55-17.21L141.55-17.21L153.90-17.21L153.90-17.21Q154.68-17.21 155.25-16.73L155.25-16.73L155.25-16.73Q155.83-16.25 156.22-15.51L156.22-15.51L156.22-15.51Q156.61-14.78 156.86-13.86L156.86-13.86L156.86-13.86Q157.11-12.94 157.27-12.07L157.27-12.07L157.27-12.07Q157.43-11.20 157.48-10.44L157.48-10.44L157.48-10.44Q157.52-9.68 157.52-9.27L157.52-9.27L157.52-9.27Q157.52-7.48 157.02-5.90L157.02-5.90L157.02-5.90Q156.51-4.31 155.50-3.05L155.50-3.05L155.50-3.05Q154.49-1.79 152.98-0.99L152.98-0.99L152.98-0.99Q151.46-0.18 149.49 0L149.49 0L149.49 0Q148.53 0.09 146.99-0.05L146.99-0.05L146.99-0.05Q145.45-0.18 143.89-0.57L143.89-0.57L143.89-0.57Q142.33-0.96 140.95-1.68L140.95-1.68L140.95-1.68Q139.58-2.39 138.93-3.49ZM160.19-10.79L160.19-10.79L160.19-10.79Q160.19-12.16 160.78-13.84L160.78-13.84L160.78-13.84Q161.38-15.51 162.41-16.96L162.41-16.96L162.41-16.96Q163.44-18.41 164.75-19.39L164.75-19.39L164.75-19.39Q166.06-20.38 167.48-20.38L167.48-20.38L167.48-20.38Q168.26-20.38 169.02-20.06L169.02-20.06L169.02-20.06Q169.78-19.74 170.49-19.21L170.49-19.21L170.49-19.21Q171.20-18.68 171.77-18.02L171.77-18.02L171.77-18.02Q172.35-17.35 172.67-16.62L172.67-16.62L172.67-16.62Q172.99-15.88 173.01-15.19L173.01-15.19L173.01-15.19Q173.04-14.50 172.62-14.00L172.62-14.00L162.94-12.21L162.94-12.21Q162.76-12.16 162.62-11.77L162.62-11.77L162.62-11.77Q162.48-11.38 162.39-10.79L162.39-10.79L162.39-10.79Q162.30-10.19 162.23-9.48L162.23-9.48L162.23-9.48Q162.16-8.77 162.11-8.10L162.11-8.10L162.11-8.10Q162.07-7.44 162.07-6.91L162.07-6.91L162.07-6.91Q162.07-6.38 162.07-6.10L162.07-6.10L162.07-6.10Q162.07-4.82 162.69-4.02L162.69-4.02L162.69-4.02Q163.31-3.21 164.27-2.80L164.27-2.80L164.27-2.80Q165.23-2.39 166.45-2.25L166.45-2.25L166.45-2.25Q167.67-2.11 168.86-2.11L168.86-2.11L168.86-2.11Q170.05-2.11 171.11-2.20L171.11-2.20L171.11-2.20Q172.17-2.29 172.85-2.29L172.85-2.29L172.85-2.29Q172.85-2.11 172.72-1.88L172.72-1.88L172.72-1.88Q172.58-1.65 172.39-1.45L172.39-1.45L172.39-1.45Q172.21-1.24 172.03-1.08L172.03-1.08L172.03-1.08Q171.84-0.92 171.80-0.87L171.80-0.87L171.80-0.87Q171.43-0.78 170.67-0.62L170.67-0.62L170.67-0.62Q169.92-0.46 169.07-0.32L169.07-0.32L169.07-0.32Q168.22-0.18 167.48-0.09L167.48-0.09L167.48-0.09Q166.75 0 166.47 0L166.47 0L166.47 0Q165.05 0.28 164.00-0.05L164.00-0.05L164.00-0.05Q162.94-0.37 162.21-1.15L162.21-1.15L162.21-1.15Q161.47-1.93 161.01-3.05L161.01-3.05L161.01-3.05Q160.55-4.18 160.32-5.46L160.32-5.46L160.32-5.46Q160.09-6.75 160.07-8.12L160.07-8.12L160.07-8.12Q160.05-9.50 160.19-10.79ZM166.84-18.63L166.84-18.63L166.84-18.63Q166.43-18.63 165.76-18.20L165.76-18.20L165.76-18.20Q165.10-17.76 164.52-17.10L164.52-17.10L164.52-17.10Q163.95-16.43 163.56-15.67L163.56-15.67L163.56-15.67Q163.17-14.92 163.31-14.37L163.31-14.37L163.31-14.37Q164.50-14.23 165.79-14.41L165.79-14.41L165.79-14.41Q167.07-14.60 168.13-14.99L168.13-14.99L168.13-14.99Q169.18-15.38 169.87-15.90L169.87-15.90L169.87-15.90Q170.56-16.43 170.54-16.98L170.54-16.98L170.54-16.98Q170.51-17.53 169.66-17.97L169.66-17.97L169.66-17.97Q168.81-18.41 166.84-18.63ZM175.06-17.90L175.06-17.90L175.06-17.90Q175.61-18.13 176.02-17.99L176.02-17.99L176.02-17.99Q176.43-17.85 176.71-17.49L176.71-17.49L176.71-17.49Q176.98-17.12 177.12-16.64L177.12-16.64L177.12-16.64Q177.26-16.16 177.35-15.70L177.35-15.70L177.35-15.70Q177.95-16.71 179.07-17.33L179.07-17.33L179.07-17.33Q180.20-17.95 181.48-18.15L181.48-18.15L181.48-18.15Q182.77-18.36 184.05-18.24L184.05-18.24L184.05-18.24Q185.34-18.13 186.23-17.69L186.23-17.69L186.23-17.69Q187.13-17.26 187.50-16.50L187.50-16.50L187.50-16.50Q187.86-15.74 187.31-14.73L187.31-14.73L187.31-14.73Q186.12-15.42 184.81-15.83L184.81-15.83L184.81-15.83Q183.50-16.25 182.26-16.11L182.26-16.11L182.26-16.11Q181.02-15.97 179.97-15.17L179.97-15.17L179.97-15.17Q178.91-14.37 178.22-12.62L178.22-12.62L178.22-12.62Q177.54-10.88 177.37-8.01L177.37-8.01L177.37-8.01Q177.21-5.14 177.76-0.87L177.76-0.87L176.02-0.87L176.02-0.87Q176.02-0.87 175.95-1.63L175.95-1.63L175.95-1.63Q175.88-2.39 175.81-3.63L175.81-3.63L175.81-3.63Q175.75-4.87 175.63-6.38L175.63-6.38L175.63-6.38Q175.52-7.89 175.42-9.46L175.42-9.46L175.42-9.46Q175.33-11.02 175.26-12.46L175.26-12.46L175.26-12.46Q175.19-13.91 175.10-14.96L175.10-14.96L175.10-14.96Q175.10-15.10 175.08-15.51L175.08-15.51L175.08-15.51Q175.06-15.93 175.06-16.41L175.06-16.41L175.06-16.41Q175.06-16.89 175.06-17.30L175.06-17.30L175.06-17.30Q175.06-17.72 175.06-17.90ZM199.89 0.23L188.96-20.29L190.39-21.71L200.48-3.35L204.80-21.11L204.80-21.11Q205.12-20.98 205.49-20.91L205.49-20.91L205.49-20.91Q205.85-20.84 206.15-20.77L206.15-20.77L206.15-20.77Q206.45-20.70 206.63-20.61L206.63-20.61L206.63-20.61Q206.82-20.52 206.82-20.29L206.82-20.29L206.82-20.29Q206.22-17.35 205.69-14.78L205.69-14.78L205.69-14.78Q205.17-12.21 204.57-9.78L204.57-9.78L204.57-9.78Q203.97-7.34 203.28-4.89L203.28-4.89L203.28-4.89Q202.60-2.43 201.68 0.23L201.68 0.23L199.89 0.23ZM210.54 0.09L209.85-17.81L209.85-17.81Q210.40-17.81 210.79-17.85L210.79-17.85L210.79-17.85Q211.18-17.90 211.45-17.40L211.45-17.40L211.45-17.40Q211.59-15.33 211.78-13.20L211.78-13.20L211.78-13.20Q211.96-11.06 212.14-8.90L212.14-8.90L212.14-8.90Q212.33-6.75 212.40-4.57L212.40-4.57L212.40-4.57Q212.46-2.39 212.42-0.32L212.42-0.32L212.42-0.32Q212.42-0.05 212.28 0.02L212.28 0.02L212.28 0.02Q212.14 0.09 211.89 0.07L211.89 0.07L211.89 0.07Q211.64 0.05 211.29 0.02L211.29 0.02L211.29 0.02Q210.95 0 210.54 0.09L210.54 0.09ZM207.19-26.02L207.19-26.02L207.19-26.02Q207.19-26.35 207.23-26.74L207.23-26.74L207.23-26.74Q207.28-27.13 207.44-27.45L207.44-27.45L207.44-27.45Q207.60-27.77 207.85-28.00L207.85-28.00L207.85-28.00Q208.10-28.23 208.47-28.23L208.47-28.23L208.47-28.23Q209.02-28.23 209.57-28.18L209.57-28.18L209.57-28.18Q210.12-28.14 210.63-27.98L210.63-27.98L210.63-27.98Q211.13-27.81 211.45-27.47L211.45-27.47L211.45-27.47Q211.78-27.13 211.78-26.48L211.78-26.48L211.78-26.48Q211.78-25.38 210.95-24.53L210.95-24.53L210.95-24.53Q210.12-23.68 208.93-23.68L208.93-23.68L208.93-23.68Q208.01-23.68 207.60-24.40L207.60-24.40L207.60-24.40Q207.19-25.11 207.19-26.02ZM209.85-25.79L209.85-25.79L209.85-25.79Q209.71-25.79 209.71-25.57L209.71-25.57L209.71-25.57Q209.71-25.34 209.85-25.34L209.85-25.34L209.85-25.34Q210.03-25.34 210.03-25.57L210.03-25.57L210.03-25.57Q210.03-25.79 209.85-25.79ZM214.30-7.85L214.30-7.85L214.30-7.85Q214.30-9.55 214.85-11.61L214.85-11.61L214.85-11.61Q215.40-13.68 216.46-15.44L216.46-15.44L216.46-15.44Q217.51-17.21 219.07-18.41L219.07-18.41L219.07-18.41Q220.63-19.60 222.70-19.60L222.70-19.60L222.70-19.60Q223.75-19.74 224.40-19.39L224.40-19.39L224.40-19.39Q225.04-19.05 225.38-18.31L225.38-18.31L225.38-18.31Q225.73-17.58 225.84-16.64L225.84-16.64L225.84-16.64Q225.96-15.70 225.98-14.71L225.98-14.71L225.98-14.71Q226.00-13.72 225.98-12.87L225.98-12.87L225.98-12.87Q225.96-12.03 226.05-11.47L226.05-11.47L224.90-11.47L224.90-11.47Q224.86-11.75 224.74-12.78L224.74-12.78L224.74-12.78Q224.63-13.82 224.35-14.92L224.35-14.92L224.35-14.92Q224.08-16.02 223.59-16.89L223.59-16.89L223.59-16.89Q223.11-17.76 222.24-17.76L222.24-17.76L222.24-17.76Q220.96-17.76 219.83-16.75L219.83-16.75L219.83-16.75Q218.71-15.74 217.88-14.32L217.88-14.32L217.88-14.32Q217.05-12.90 216.55-11.38L216.55-11.38L216.55-11.38Q216.04-9.87 216.04-8.86L216.04-8.86L216.04-8.86Q216.09-7.71 216.37-6.36L216.37-6.36L216.37-6.36Q216.64-5.00 217.26-3.90L217.26-3.90L217.26-3.90Q217.88-2.80 218.89-2.11L218.89-2.11L218.89-2.11Q219.90-1.42 221.37-1.70L221.37-1.70L221.37-1.70Q222.47-1.70 223.48-2.16L223.48-2.16L223.48-2.16Q224.49-2.62 225.45-3.12L225.45-3.12L225.45-3.12Q226.42-3.63 227.40-4.08L227.40-4.08L227.40-4.08Q228.39-4.54 229.49-4.54L229.49-4.54L229.49-4.54Q229.49-3.35 228.62-2.46L228.62-2.46L228.62-2.46Q227.75-1.56 226.49-1.01L226.49-1.01L226.49-1.01Q225.22-0.46 223.82-0.18L223.82-0.18L223.82-0.18Q222.42 0.09 221.46 0.09L221.46 0.09L221.46 0.09Q219.90 0.09 218.59-0.55L218.59-0.55L218.59-0.55Q217.28-1.19 216.32-2.27L216.32-2.27L216.32-2.27Q215.36-3.35 214.83-4.80L214.83-4.80L214.83-4.80Q214.30-6.24 214.30-7.85ZM231.83-10.79L231.83-10.79L231.83-10.79Q231.83-12.16 232.43-13.84L232.43-13.84L232.43-13.84Q233.03-15.51 234.06-16.96L234.06-16.96L234.06-16.96Q235.09-18.41 236.40-19.39L236.40-19.39L236.40-19.39Q237.71-20.38 239.13-20.38L239.13-20.38L239.13-20.38Q239.91-20.38 240.67-20.06L240.67-20.06L240.67-20.06Q241.43-19.74 242.14-19.21L242.14-19.21L242.14-19.21Q242.85-18.68 243.42-18.02L243.42-18.02L243.42-18.02Q244.00-17.35 244.32-16.62L244.32-16.62L244.32-16.62Q244.64-15.88 244.66-15.19L244.66-15.19L244.66-15.19Q244.68-14.50 244.27-14.00L244.27-14.00L234.59-12.21L234.59-12.21Q234.40-12.16 234.27-11.77L234.27-11.77L234.27-11.77Q234.13-11.38 234.04-10.79L234.04-10.79L234.04-10.79Q233.94-10.19 233.88-9.48L233.88-9.48L233.88-9.48Q233.81-8.77 233.76-8.10L233.76-8.10L233.76-8.10Q233.71-7.44 233.71-6.91L233.71-6.91L233.71-6.91Q233.71-6.38 233.71-6.10L233.71-6.10L233.71-6.10Q233.71-4.82 234.33-4.02L234.33-4.02L234.33-4.02Q234.95-3.21 235.92-2.80L235.92-2.80L235.92-2.80Q236.88-2.39 238.10-2.25L238.10-2.25L238.10-2.25Q239.31-2.11 240.51-2.11L240.51-2.11L240.51-2.11Q241.70-2.11 242.76-2.20L242.76-2.20L242.76-2.20Q243.81-2.29 244.50-2.29L244.50-2.29L244.50-2.29Q244.50-2.11 244.36-1.88L244.36-1.88L244.36-1.88Q244.23-1.65 244.04-1.45L244.04-1.45L244.04-1.45Q243.86-1.24 243.67-1.08L243.67-1.08L243.67-1.08Q243.49-0.92 243.45-0.87L243.45-0.87L243.45-0.87Q243.08-0.78 242.32-0.62L242.32-0.62L242.32-0.62Q241.56-0.46 240.71-0.32L240.71-0.32L240.71-0.32Q239.87-0.18 239.13-0.09L239.13-0.09L239.13-0.09Q238.40 0 238.12 0L238.12 0L238.12 0Q236.70 0.28 235.64-0.05L235.64-0.05L235.64-0.05Q234.59-0.37 233.85-1.15L233.85-1.15L233.85-1.15Q233.12-1.93 232.66-3.05L232.66-3.05L232.66-3.05Q232.20-4.18 231.97-5.46L231.97-5.46L231.97-5.46Q231.74-6.75 231.72-8.12L231.72-8.12L231.72-8.12Q231.70-9.50 231.83-10.79ZM238.49-18.63L238.49-18.63L238.49-18.63Q238.08-18.63 237.41-18.20L237.41-18.20L237.41-18.20Q236.74-17.76 236.17-17.10L236.17-17.10L236.17-17.10Q235.60-16.43 235.21-15.67L235.21-15.67L235.21-15.67Q234.82-14.92 234.95-14.37L234.95-14.37L234.95-14.37Q236.15-14.23 237.43-14.41L237.43-14.41L237.43-14.41Q238.72-14.60 239.77-14.99L239.77-14.99L239.77-14.99Q240.83-15.38 241.52-15.90L241.52-15.90L241.52-15.90Q242.21-16.43 242.18-16.98L242.18-16.98L242.18-16.98Q242.16-17.53 241.31-17.97L241.31-17.97L241.31-17.97Q240.46-18.41 238.49-18.63Z" fill="none" stroke="#ffffff" stroke-width="1.4"></path></g></g><style>text {
  font-size: 64px;
  font-family: Arial Black;
  dominant-baseline: central;
  text-anchor: middle;
}</style></svg>